<?xml version="1.0" standalone="no"?>
<!DOCTYPE svg PUBLIC "-//W3C//DTD SVG 20010904//EN"
 "http://www.w3.org/TR/2001/REC-SVG-20010904/DTD/svg10.dtd">
<svg version="1.0" xmlns="http://www.w3.org/2000/svg"
 width="418.000000pt" height="418.000000pt" viewBox="0 0 418.000000 418.000000"
 preserveAspectRatio="xMidYMid meet">
<metadata>
Created by potrace 1.11, written by Peter Selinger 2001-2013
</metadata>
<g transform="translate(0.000000,418.000000) scale(0.100000,-0.100000)"
fill="#000000" stroke="none">
<path d="M1977 4174 c-1 -1 -36 -4 -77 -8 -41 -3 -88 -8 -105 -11 -215 -38
-343 -73 -500 -138 -665 -275 -1150 -891 -1260 -1597 -28 -179 -27 -519 1
-664 2 -12 7 -37 10 -56 11 -65 45 -194 74 -280 173 -521 574 -971 1080 -1212
215 -103 481 -174 720 -194 63 -5 341 -6 365 0 11 2 47 7 80 10 33 4 67 9 75
11 8 2 31 7 50 10 19 3 47 8 62 11 62 10 262 76 363 119 292 125 559 322 767
566 62 73 111 142 208 289 18 27 109 211 134 271 69 162 127 399 143 584 35
395 -30 765 -196 1111 -138 286 -325 520 -592 739 -72 59 -258 173 -373 229
-290 142 -561 205 -899 210 -70 1 -128 1 -130 0z"/>
</g>
</svg>
